<?xml version="1.0" encoding="UTF-8"?>
<!--Generator: Apple Native CoreSVG 341-->
<!DOCTYPE svg
PUBLIC "-//W3C//DTD SVG 1.1//EN"
       "http://www.w3.org/Graphics/SVG/1.1/DTD/svg11.dtd">
<svg version="1.1" xmlns="http://www.w3.org/2000/svg" xmlns:xlink="http://www.w3.org/1999/xlink" viewBox="0 0 43.6641 29.1692">
 <g>
  <rect height="29.1692" opacity="0" width="43.6641" x="0" y="0"/>
  <path d="M15.1641 26.4147C15.1641 27.2584 14.625 27.7155 13.7344 27.7155L12.5508 27.7155C11.6602 27.7155 11.1094 27.2584 11.1094 26.4147L11.1094 17.219C12.8282 17.0871 14.0988 16.7973 15.1641 16.3986ZM32.2031 17.219L32.2031 26.4147C32.2031 27.2584 31.6523 27.7155 30.7617 27.7155L29.5781 27.7155C28.6875 27.7155 28.1484 27.2584 28.1484 26.4147L28.1484 16.3986C29.2137 16.7973 30.4843 17.0871 32.2031 17.219Z" fill="white" fill-opacity="0.85"/>
  <path d="M20.6016 7.34826C20.6016 10.6295 18.6328 12.9733 16.0898 14.3795C15.009 14.9762 13.8324 15.426 11.9788 15.6531C12.2706 14.959 12.4336 14.1575 12.4336 13.2545C12.4336 10.2512 9.98296 7.24795 6.60139 6.7164C6.88001 6.16174 7.17518 5.70145 7.38281 5.43811C9.22266 2.71936 12.1172 1.41858 14.7188 1.45373C18.0117 1.48889 20.6016 3.66858 20.6016 7.34826ZM35.9297 5.43811C36.1373 5.70145 36.4325 6.16174 36.7111 6.7164C33.3295 7.24795 30.8789 10.2512 30.8789 13.2545C30.8789 14.1575 31.0419 14.959 31.3337 15.6531C29.4801 15.426 28.3035 14.9762 27.2227 14.3795C24.6797 12.9733 22.7109 10.6295 22.7109 7.34826C22.7109 3.66858 25.3008 1.48889 28.5938 1.45373C31.1953 1.41858 34.0898 2.71936 35.9297 5.43811ZM16.6172 4.8053L14.4727 6.60998C14.1797 6.85608 14.1445 7.27795 14.3789 7.5592C14.625 7.86389 15.0586 7.88733 15.3281 7.65295L17.5078 5.84826C17.8008 5.60217 17.8125 5.1803 17.5664 4.89905C17.3438 4.59436 16.9102 4.5592 16.6172 4.8053ZM25.7461 4.89905C25.5 5.1803 25.5117 5.60217 25.8047 5.84826L27.9844 7.65295C28.2539 7.88733 28.6875 7.86389 28.9336 7.5592C29.168 7.27795 29.1328 6.85608 28.8398 6.60998L26.6953 4.8053C26.4023 4.5592 25.9688 4.59436 25.7461 4.89905Z" fill="white" fill-opacity="0.85"/>
  <path d="M6.76172 17.5084C9.09375 17.5084 11.0391 16.0553 11.0391 13.2545C11.0391 10.6764 8.64844 8.02795 5.51953 8.02795C2.94141 8.02795 1.39453 10.0436 1.39453 12.2233C1.39453 15.3639 4.06641 17.5084 6.76172 17.5084ZM6.04688 15.3405C5.625 15.7037 4.91016 15.3287 4.04297 14.274C3.1875 13.2428 2.95312 12.5045 3.36328 12.1412C3.79688 11.778 4.5 12.1412 5.36719 13.1959C6.21094 14.2623 6.45703 14.9889 6.04688 15.3405ZM36.5508 17.5084C39.2461 17.5084 41.918 15.3639 41.918 12.2233C41.918 10.0436 40.3711 8.02795 37.793 8.02795C34.6641 8.02795 32.2734 10.6764 32.2734 13.2545C32.2734 16.0553 34.2188 17.5084 36.5508 17.5084ZM37.2656 15.3405C36.8555 14.9889 37.1016 14.2623 37.9453 13.1959C38.8125 12.1412 39.5156 11.778 39.9492 12.1412C40.3594 12.5045 40.125 13.2428 39.2695 14.274C38.4141 15.3287 37.6875 15.7037 37.2656 15.3405Z" fill="white" fill-opacity="0.425"/>
 </g>
</svg>
