<?xml version="1.0" encoding="UTF-8"?>
<svg id="_レイヤー_1" xmlns="http://www.w3.org/2000/svg" version="1.1" viewBox="0 0 826.6 1142.9">
  <!-- Generator: Adobe Illustrator 29.8.2, SVG Export Plug-In . SVG Version: 2.1.1 Build 3)  -->
  <g id="bikkuri">
    <path d="M531.2,446.8c3.4,2.6,5,6.9,4.2,11.1l-9,50-6.9,38.6-10.7,59.6-1.3.2c-6.4-1.8-13.1-2.9-20.1-3.1-4,0-8,0-11.8.6-1.1,0-2.1-.6-2.3-1.8l-6.2-44-5.1-36.4-11.5-82c-.9-6,3.7-11.6,9.8-11.9,3.1-.1,6.2-.2,9.3-.1,7.1.2,14,.9,20.5,2.1,4.7.9,9.2,2,13.5,3.3,10.8,3.3,20.2,8.1,27.6,13.8h0Z"/>
  </g>
</svg>