<?xml version="1.0" encoding="UTF-8"?>
<svg id="_レイヤー_1" xmlns="http://www.w3.org/2000/svg" version="1.1" viewBox="0 0 826.6 1142.9">
  <!-- Generator: Adobe Illustrator 29.8.2, SVG Export Plug-In . SVG Version: 2.1.1 Build 3)  -->
  <g id="face">
    <path d="M431.1,606.3c2.4,8.7.4,18.1-5.4,25.1-.7.9-1.4,1.7-2.1,2.6-6.3,8.2-11.1,17.6-13.9,27.9-1.4,5-2.3,10.2-2.7,15.6-.1,2-.2,4-.2,6.1,0,10.9,2.1,21.3,6,30.7,2.4,5.9-2,12.4-8.4,12.4h-130.6c-2.5,0-5-.3-7.5-.9-32.1-6.8-50.1-50.4-40.2-97.4.3-1.3.6-2.6.9-3.9l-25.6-3.4c-6.4-.8-9.4-8.4-5.3-13.4l54.4-66.7c.6-7.2,1.7-14.4,3.2-21.7,5.4-25.8,15.9-48.8,29.7-67.8,20.4-28,48.1-47.1,77.8-52.8,6.5-1.2,12.9,2.7,14.7,9.1l55.3,198.4h0Z"/>
  </g>
</svg>